<?xml version="1.0" encoding="UTF-8"?>
<!DOCTYPE svg PUBLIC "-//W3C//DTD SVG 1.1//EN" "http://www.w3.org/Graphics/SVG/1.1/DTD/svg11.dtd">
<svg xmlns="http://www.w3.org/2000/svg" version="1.1" width="419px" height="419px" style="shape-rendering:geometricPrecision; text-rendering:geometricPrecision; image-rendering:optimizeQuality; fill-rule:evenodd; clip-rule:evenodd" xmlns:xlink="http://www.w3.org/1999/xlink">
<g><path style="opacity:0.761" fill="#251c23" d="M -0.5,0.5 C 138.833,0.5 278.167,0.5 417.5,0.5C 417.5,139.833 417.5,279.167 417.5,418.5C 278.5,418.5 139.5,418.5 0.5,418.5C 0.5,417.833 0.166667,417.5 -0.5,417.5C -0.5,278.5 -0.5,139.5 -0.5,0.5 Z M 1.5,1.5 C 139.833,1.5 278.167,1.5 416.5,1.5C 416.5,139.833 416.5,278.167 416.5,416.5C 278.167,416.5 139.833,416.5 1.5,416.5C 1.5,278.167 1.5,139.833 1.5,1.5 Z"/></g>
<g><path style="opacity:0.949" fill="#f3a0a7" d="M 103.5,69.5 C 95.8919,57.3218 87.0585,45.9884 77,35.5C 75.759,34.1233 75.5923,32.79 76.5,31.5C 79.0387,33.2003 81.7053,34.7003 84.5,36C 98.893,46.8512 113.226,57.6846 127.5,68.5C 119.334,58.8308 111.334,48.9974 103.5,39C 104.5,38.3333 105.5,38.3333 106.5,39C 118.408,45.7578 130.408,52.2578 142.5,58.5C 138.062,54.5644 133.729,50.3978 129.5,46C 130.5,45.3333 131.5,45.3333 132.5,46C 147.445,52.4687 161.445,60.4687 174.5,70C 119.388,69.7859 83.888,95.9525 68,148.5C 64.1236,133.456 60.6236,118.29 57.5,103C 58.4491,102.383 59.2825,102.549 60,103.5C 63,108.167 66,112.833 69,117.5C 69.6543,118.696 70.1543,118.696 70.5,117.5C 64.5462,99.9269 56.7129,83.2603 47,67.5C 46.2506,66.365 46.4173,65.365 47.5,64.5C 56.8562,75.5194 66.1895,86.5194 75.5,97.5C 65.6336,74.7569 53.4669,53.4235 39,33.5C 37.759,32.1233 37.5923,30.79 38.5,29.5C 48.1523,39.6525 57.9857,49.6525 68,59.5C 75.0315,68.0254 82.1982,76.3588 89.5,84.5C 85.943,77.725 82.1097,71.0583 78,64.5C 68.8333,51.5 59.6667,38.5 50.5,25.5C 51.0016,24.479 51.6683,24.3123 52.5,25C 69.9636,39.2966 86.9636,54.1299 103.5,69.5 Z"/></g>
<g><path style="opacity:0.972" fill="#cc1f29" d="M 385.5,43.5 C 387.167,43.5 388.833,43.5 390.5,43.5C 371.921,149.306 352.588,254.973 332.5,360.5C 305.259,349.145 278.259,337.311 251.5,325C 272.165,325.193 292.832,325.693 313.5,326.5C 328.499,239.836 343.499,153.169 358.5,66.5C 308.861,70.9422 259.195,74.7756 209.5,78C 268.284,66.5428 326.951,55.0428 385.5,43.5 Z"/></g>
<g><path style="opacity:0.98" fill="#110f0e" d="M 151.5,74.5 C 200.665,70.647 235.831,90.647 257,134.5C 267.537,165.848 265.203,196.182 250,225.5C 224.989,262.912 190.156,277.745 145.5,270C 97.5821,255.696 71.9155,223.529 68.5,173.5C 69.9995,128.953 90.9995,97.7859 131.5,80C 138.208,77.8261 144.875,75.9927 151.5,74.5 Z"/></g>
<g><path style="opacity:0.999" fill="#e93623" d="M 152.5,87.5 C 160.087,87.1858 167.587,87.5192 175,88.5C 186.536,104.944 192.369,123.278 192.5,143.5C 173.759,140.961 159.425,131.628 149.5,115.5C 151.5,114.833 153.5,114.167 155.5,113.5C 155.333,113.167 155.167,112.833 155,112.5C 152,111.833 149,111.167 146,110.5C 144.459,108.523 143.959,106.523 144.5,104.5C 149.844,102.998 155.177,101.498 160.5,100C 155.313,99.121 150.313,97.7876 145.5,96C 152.856,95.8313 160.189,95.3313 167.5,94.5C 167.291,93.914 166.957,93.414 166.5,93C 135.967,92.014 112.801,104.514 97,130.5C 83.0575,158.403 83.0575,186.403 97,214.5C 120.49,248.894 152.657,261.061 193.5,251C 196.037,248.128 198.87,245.628 202,243.5C 202.483,242.552 202.649,241.552 202.5,240.5C 192.188,243.995 181.855,247.162 171.5,250C 177.009,245.323 182.342,240.49 187.5,235.5C 187.333,235.167 187.167,234.833 187,234.5C 182.886,235.927 178.719,237.26 174.5,238.5C 174.167,238.167 173.833,237.833 173.5,237.5C 177.682,229.136 181.849,220.802 186,212.5C 188.156,204.876 190.156,197.21 192,189.5C 193.067,187.717 194.567,187.217 196.5,188C 216.968,199.775 224.802,217.275 220,240.5C 187.166,264.182 153.333,265.682 118.5,245C 83.9764,217.785 73.1431,182.951 86,140.5C 98.9399,111.041 121.107,93.3747 152.5,87.5 Z"/></g>
<g><path style="opacity:0.999" fill="#ec3623" d="M 184.5,89.5 C 204.95,93.8899 221.283,104.557 233.5,121.5C 226.03,136.744 213.697,144.078 196.5,143.5C 195.652,124.777 191.652,106.777 184.5,89.5 Z"/></g>
<g><path style="opacity:0.998" fill="#db3322" d="M 133.5,106.5 C 135.701,106.858 137.035,108.192 137.5,110.5C 131.528,111.664 125.528,111.83 119.5,111C 124.274,109.481 128.941,107.981 133.5,106.5 Z"/></g>
<g><path style="opacity:0.999" fill="#ea3623" d="M 138.5,118.5 C 140.199,118.34 141.866,118.506 143.5,119C 151.91,128.033 161.577,135.366 172.5,141C 178.972,143.437 185.639,144.937 192.5,145.5C 192.5,150.5 192.5,155.5 192.5,160.5C 186.744,159.862 181.077,158.695 175.5,157C 164.855,155.78 154.188,154.78 143.5,154C 140.107,153.202 136.774,152.202 133.5,151C 120.929,150.442 108.595,148.775 96.5,146C 111.833,141.667 127.167,137.333 142.5,133C 129.821,132.153 117.154,131.153 104.5,130C 115.701,125.539 127.035,121.706 138.5,118.5 Z"/></g>
<g><path style="opacity:0.999" fill="#ec3623" d="M 236.5,127.5 C 239.176,129.026 241.009,131.36 242,134.5C 248.506,150.196 251.339,166.529 250.5,183.5C 240.861,180.184 231.527,176.017 222.5,171C 213.7,167.455 204.7,164.622 195.5,162.5C 195.899,156.925 196.566,151.425 197.5,146C 213.399,145.659 226.399,139.492 236.5,127.5 Z"/></g>
<g><path style="opacity:0.999" fill="#ea3623" d="M 126.5,155.5 C 148.282,154.494 169.615,156.994 190.5,163C 191.624,163.839 192.291,165.006 192.5,166.5C 191.645,171.484 190.978,176.484 190.5,181.5C 182.034,180.308 173.534,179.308 165,178.5C 153.193,178.993 141.693,181.159 130.5,185C 117.077,185.398 103.744,184.398 90.5,182C 106.672,177.718 122.672,173.051 138.5,168C 123.399,166.826 108.399,165.16 93.5,163C 104.375,159.362 115.375,156.862 126.5,155.5 Z"/></g>
<g><path style="opacity:0.941" fill="#cc2029" d="M 293.5,155.5 C 296.187,155.336 298.854,155.503 301.5,156C 295.546,184.103 289.712,212.27 284,240.5C 282.948,217.849 282.115,195.183 281.5,172.5C 276.167,169.833 270.833,167.167 265.5,164.5C 264.548,162.955 264.215,161.288 264.5,159.5C 274.378,158.725 284.045,157.392 293.5,155.5 Z"/></g>
<g><path style="opacity:0.999" fill="#eb3623" d="M 195.5,165.5 C 214.436,170.385 231.936,178.385 248,189.5C 246.972,204.249 241.472,217.082 231.5,228C 230.4,228.432 229.733,227.932 229.5,226.5C 224.791,206.291 212.958,191.957 194,183.5C 194.382,177.525 194.882,171.525 195.5,165.5 Z"/></g>
<g><path style="opacity:0.999" fill="#eb3623" d="M 153.5,181.5 C 164.97,180.876 176.304,181.709 187.5,184C 188.516,184.519 189.182,185.353 189.5,186.5C 186.255,202.982 179.755,217.982 170,231.5C 167.132,234.736 164.632,238.236 162.5,242C 157.34,244.29 152.007,245.623 146.5,246C 154.5,240 162.5,234 170.5,228C 154.511,230.427 138.511,232.76 122.5,235C 133.167,228.667 143.833,222.333 154.5,216C 139.195,217.165 123.862,218.165 108.5,219C 121.285,213.52 133.951,207.853 146.5,202C 135.5,201.667 124.5,201.333 113.5,201C 125.719,192.056 139.052,185.556 153.5,181.5 Z"/></g>
<g><path style="opacity:0.971" fill="#cc1f29" d="M 261.5,240.5 C 270.871,241.125 279.705,244.125 288,249.5C 289.91,252.156 291.41,254.989 292.5,258C 290.62,264.882 286.287,269.549 279.5,272C 256.381,281.446 232.381,287.446 207.5,290C 167.611,294.804 127.611,295.804 87.5,293C 71.0639,291.224 55.0639,287.558 39.5,282C 33.548,279.713 29.2147,275.713 26.5,270C 29.0925,263.074 33.7591,258.074 40.5,255C 55.2532,248.413 70.5866,244.08 86.5,242C 76.1217,245.794 65.7884,249.794 55.5,254C 52.0501,256.158 51.7167,258.658 54.5,261.5C 56.0284,262.861 57.6951,264.028 59.5,265C 74.568,269.214 89.9014,271.88 105.5,273C 146.321,274.853 186.988,273.186 227.5,268C 242.199,265.827 256.199,261.494 269.5,255C 271,253.5 272.5,252 274,250.5C 274.492,249.451 274.326,248.451 273.5,247.5C 269.768,244.637 265.768,242.303 261.5,240.5 Z"/></g>
<g><path style="opacity:0.847" fill="#cb2029" d="M 248.5,241.5 C 255.326,242.72 261.659,245.22 267.5,249C 259.075,249.224 250.741,248.391 242.5,246.5C 244.162,244.348 246.162,242.682 248.5,241.5 Z"/></g>
<g><path style="opacity:0.847" fill="#cc1f29" d="M 85.5,245.5 C 87.5273,245.338 89.5273,245.505 91.5,246C 93.208,248.043 95.208,249.71 97.5,251C 96.8333,251.333 96.1667,251.667 95.5,252C 85.7645,252.773 76.0978,253.94 66.5,255.5C 66.1667,255.167 65.8333,254.833 65.5,254.5C 72.0113,250.906 78.6779,247.906 85.5,245.5 Z"/></g>
<g><path style="opacity:0.858" fill="#121212" d="M 234.5,348.5 C 229.196,352.157 223.862,355.823 218.5,359.5C 214.509,369.812 210.676,380.145 207,390.5C 208.937,380.923 211.437,371.423 214.5,362C 210.162,362.332 205.996,363.498 202,365.5C 199.361,372.057 197.027,378.723 195,385.5C 195.012,379.589 195.845,373.755 197.5,368C 197.167,367.5 196.833,367 196.5,366.5C 192.571,367.816 188.571,368.816 184.5,369.5C 183.289,377.48 182.122,385.48 181,393.5C 180.567,385.491 180.734,377.491 181.5,369.5C 175.821,370.101 170.155,370.768 164.5,371.5C 164.664,374.187 164.497,376.854 164,379.5C 163.007,376.692 162.173,373.859 161.5,371C 156.845,370.501 152.179,370.334 147.5,370.5C 148.776,378.147 149.609,385.813 150,393.5C 147.679,385.884 145.512,378.217 143.5,370.5C 138.251,368.845 132.918,368.012 127.5,368C 129.721,374.379 131.221,380.879 132,387.5C 129.215,381.377 126.881,375.043 125,368.5C 120.083,364.961 114.583,362.961 108.5,362.5C 109.866,367.573 111.532,372.573 113.5,377.5C 113.154,378.696 112.654,378.696 112,377.5C 97.5578,346.761 79.7245,318.261 58.5,292C 64.9422,292.308 70.1089,295.141 74,300.5C 77.3751,306.085 80.8751,311.585 84.5,317C 90.8179,320.246 97.4846,321.913 104.5,322C 99.2497,314.168 94.2497,306.168 89.5,298C 90.5929,296.635 91.9262,296.301 93.5,297C 95.6641,297.914 97.6641,299.081 99.5,300.5C 103.372,308.411 107.372,316.245 111.5,324C 118.421,326.194 125.421,327.028 132.5,326.5C 128.833,317.833 125.167,309.167 121.5,300.5C 124.167,299.167 126.833,299.167 129.5,300.5C 132.634,309.068 135.467,317.734 138,326.5C 138.75,327.126 139.584,327.626 140.5,328C 146.157,328.499 151.824,328.666 157.5,328.5C 156.939,318.448 155.939,308.448 154.5,298.5C 156.5,298.5 158.5,298.5 160.5,298.5C 161.56,308.156 162.56,317.822 163.5,327.5C 171.24,327.648 178.907,326.982 186.5,325.5C 188.49,315.893 190.157,306.227 191.5,296.5C 194.167,296.167 196.833,295.833 199.5,295.5C 196.969,304.43 194.636,313.43 192.5,322.5C 192.833,323.167 193.167,323.833 193.5,324.5C 199.404,323.457 205.071,321.791 210.5,319.5C 213.254,310.565 216.588,301.898 220.5,293.5C 222.768,292.456 225.101,292.289 227.5,293C 223.529,301.425 220.029,309.925 217,318.5C 221.835,316.914 226.668,315.247 231.5,313.5C 235.701,304.931 240.035,296.431 244.5,288C 247.167,287.333 249.833,287.333 252.5,288C 248.833,294.333 245.167,300.667 241.5,307C 244.522,307.164 247.189,306.164 249.5,304C 257.207,296.562 264.207,288.562 270.5,280C 272.218,279.654 273.885,279.154 275.5,278.5C 275.833,278.833 276.167,279.167 276.5,279.5C 270.863,288.303 265.029,296.97 259,305.5C 247.161,329.508 236.161,353.841 226,378.5C 225.833,378 225.667,377.5 225.5,377C 228.809,367.573 231.809,358.073 234.5,348.5 Z"/></g>
<g><path style="opacity:0.997" fill="#f9f9f9" d="M 252.5,306.5 C 248.843,318.174 243.676,329.507 237,340.5C 231.957,345.212 226.623,349.545 221,353.5C 225.104,340.937 230.104,328.604 236,316.5C 241.314,312.764 246.814,309.431 252.5,306.5 Z"/></g>
<g><path style="opacity:0.998" fill="#f9f9f9" d="M 226.5,317.5 C 227.978,317.238 229.311,317.571 230.5,318.5C 225.16,330.181 220.66,342.181 217,354.5C 212.698,358.069 207.864,360.736 202.5,362.5C 201.386,361.277 201.219,359.944 202,358.5C 205.473,347.083 209.139,335.75 213,324.5C 213.833,323.667 214.667,322.833 215.5,322C 219.307,320.572 222.974,319.072 226.5,317.5 Z"/></g>
<g><path style="opacity:0.998" fill="#f9f9f9" d="M 203.5,324.5 C 205.527,324.338 207.527,324.505 209.5,325C 205.773,337.739 202.273,350.573 199,363.5C 194.703,364.496 190.37,365.496 186,366.5C 185.5,366.167 185,365.833 184.5,365.5C 186.88,353.22 189.047,340.887 191,328.5C 194.998,326.586 199.165,325.253 203.5,324.5 Z"/></g>
<g><path style="opacity:0.998" fill="#f9f9f9" d="M 89.5,325.5 C 94.8529,326.137 100.186,326.97 105.5,328C 107.286,328.785 108.786,329.951 110,331.5C 114.371,341.741 118.871,351.907 123.5,362C 116.574,360.411 109.908,357.911 103.5,354.5C 98.5496,344.934 93.8829,335.267 89.5,325.5 Z"/></g>
<g><path style="opacity:0.998" fill="#fbfbfb" d="M 177.5,328.5 C 180.167,328.5 182.833,328.5 185.5,328.5C 184.566,341.505 183.566,354.505 182.5,367.5C 176.162,367.767 169.829,368.1 163.5,368.5C 163.5,355.833 163.5,343.167 163.5,330.5C 168.338,330.089 173.005,329.422 177.5,328.5 Z"/></g>
<g><path style="opacity:0.997" fill="#f9f9f9" d="M 114.5,330.5 C 121.09,330.189 127.59,330.522 134,331.5C 137.428,343.385 140.928,355.218 144.5,367C 138.107,366.988 131.94,365.821 126,363.5C 121.662,352.653 117.829,341.653 114.5,330.5 Z"/></g>
<g><path style="opacity:0.999" fill="#fbfbfb" d="M 138.5,331.5 C 145.5,331.5 152.5,331.5 159.5,331.5C 160.473,343.815 161.14,356.149 161.5,368.5C 156.456,368.827 151.456,368.494 146.5,367.5C 143.704,355.521 141.038,343.521 138.5,331.5 Z"/></g>
</svg>
