<?xml version="1.0" encoding="UTF-8"?>
<!DOCTYPE svg PUBLIC "-//W3C//DTD SVG 1.1//EN" "http://www.w3.org/Graphics/SVG/1.1/DTD/svg11.dtd">
<svg xmlns="http://www.w3.org/2000/svg" version="1.1" width="246px" height="205px" style="shape-rendering:geometricPrecision; text-rendering:geometricPrecision; image-rendering:optimizeQuality; fill-rule:evenodd; clip-rule:evenodd" xmlns:xlink="http://www.w3.org/1999/xlink">
<g><path style="opacity:1" fill="#2b4e7b" d="M 55.5,39.5 C 57.1439,39.2865 58.6439,39.6198 60,40.5C 60.8333,43 61.6667,45.5 62.5,48C 59.6266,51.2109 57.1266,54.7109 55,58.5C 54.0852,69.8885 52.7519,81.2219 51,92.5C 49.2621,96.2413 46.7621,99.408 43.5,102C 46.7621,104.592 49.2621,107.759 51,111.5C 52.7013,122.784 54.0347,134.118 55,145.5C 57.112,149.278 59.612,152.778 62.5,156C 61.5944,158.447 60.7611,160.947 60,163.5C 52.0628,163.199 45.3962,159.865 40,153.5C 38.7246,151.283 37.7246,148.949 37,146.5C 36.0389,136.494 35.0389,126.494 34,116.5C 32.5912,112.094 29.5912,109.427 25,108.5C 24.7489,106.567 24.2489,104.734 23.5,103C 23.2649,100.606 23.7649,98.1065 25,95.5C 29.5912,94.5731 32.5912,91.9064 34,87.5C 35.1089,79.5429 35.7756,71.5429 36,63.5C 37.5669,51.4381 44.0669,43.4381 55.5,39.5 Z"/></g>
<g><path style="opacity:1" fill="#2a4e7a" d="M 185.5,39.5 C 199.413,42.5838 207.247,51.2504 209,65.5C 209.333,72.5 209.667,79.5 210,86.5C 211.121,91.9543 214.454,94.9543 220,95.5C 220.667,99.8333 220.667,104.167 220,108.5C 216.186,109.32 213.186,111.32 211,114.5C 209.853,124.47 208.853,134.47 208,144.5C 204.547,154.955 197.547,161.621 187,164.5C 186.167,164.167 185.333,163.833 184.5,163.5C 183.727,160.569 182.727,157.736 181.5,155C 182.834,152.913 184.667,151.413 187,150.5C 187.667,149.167 188.333,147.833 189,146.5C 190.264,136.876 191.264,127.209 192,117.5C 192.739,110.856 195.906,105.689 201.5,102C 197.48,98.989 194.647,95.1557 193,90.5C 191.49,79.184 190.157,67.8507 189,56.5C 187.132,53.2986 184.632,50.7986 181.5,49C 182.355,45.5947 183.688,42.4281 185.5,39.5 Z"/></g>
<g><path style="opacity:0.999" fill="#2d4f7b" d="M 80.5,122.5 C 90.8282,122.326 95.3282,127.326 94,137.5C 87.2019,145.424 80.5352,145.424 74,137.5C 71.8029,130.632 73.9695,125.632 80.5,122.5 Z"/></g>
<g><path style="opacity:1" fill="#32527e" d="M 117.5,122.5 C 129.202,122.022 133.702,127.355 131,138.5C 123.497,145.581 116.831,144.914 111,136.5C 109.709,130.087 111.876,125.42 117.5,122.5 Z"/></g>
<g><path style="opacity:0.999" fill="#2d4f7c" d="M 156.5,122.5 C 166.807,122.306 171.307,127.306 170,137.5C 163.249,145.411 156.583,145.411 150,137.5C 147.885,130.414 150.051,125.414 156.5,122.5 Z"/></g>
</svg>
