<svg version="1.0" xmlns="http://www.w3.org/2000/svg" preserveAspectRatio="xMidYMid meet" viewBox="49.93 25.08 100.13 100.92">

<g transform="translate(0.000000,200.000000) scale(0.100000,-0.100000)" fill="#000000" stroke="none">
<path d="M880 1725 c-70 -47 -70 -47 -70 -145 0 -77 3 -93 20 -110 11 -11 25 -20 30 -20 6 0 10 -6 10 -14 0 -7 9 -25 20 -39 23 -29 26 -60 8 -74 -7 -6 -35 -16 -62 -23 -34 -9 -63 -27 -93 -56 l-43 -43 0 -138 c0 -76 4 -144 9 -152 5 -7 4 -25 -2 -42 -11 -29 -12 -29 -93 -29 -45 0 -89 -3 -98 -6 -24 -9 -21 -71 3 -84 13 -6 182 -10 481 -10 299 0 468 4 481 10 24 13 27 75 3 84 -9 3 -52 6 -97 6 -79 0 -82 1 -94 26 -8 18 -9 32 -3 45 6 10 10 79 10 154 l0 136 -43 43 c-30 29 -59 47 -93 56 -27 7 -55 17 -61 23 -19 14 -16 45 7 74 11 14 20 31 20 38 0 6 11 17 25 23 31 14 39 46 33 132 -9 120 -58 161 -195 159 -64 -1 -84 -5 -113 -24z m227 -25 c21 -13 35 -31 42 -57 13 -45 14 -103 3 -103 -14 0 -32 23 -32 41 0 20 -30 33 -133 55 -92 19 -105 13 -116 -52 -10 -62 -31 -54 -31 12 0 58 18 94 45 94 7 0 18 7 25 15 20 24 156 21 197 -5z m-89 -102 c57 -11 65 -15 77 -43 8 -21 22 -35 40 -39 29 -7 29 -29 -1 -34 -11 -2 -28 -21 -39 -45 -41 -86 -156 -85 -193 2 -10 24 -25 41 -36 43 -30 5 -29 21 4 40 24 14 30 24 30 51 0 40 8 50 35 43 11 -3 48 -11 83 -18z m53 -285 l17 -34 -31 -15 c-36 -19 -111 -14 -134 8 -12 13 -12 18 3 44 15 27 22 29 73 30 54 1 57 -1 72 -33z m-181 -48 c11 -13 5 -15 -46 -14 l-59 1 35 13 c46 18 55 18 70 0z m300 -6 c10 -5 -5 -9 -39 -9 -46 0 -52 2 -41 15 12 15 47 12 80 -6z m68 -51 c17 -17 17 -282 -1 -296 -6 -6 -28 -12 -47 -14 -49 -4 -44 -22 9 -28 25 -3 46 -11 49 -18 3 -10 -51 -12 -262 -10 -167 2 -267 7 -269 13 -1 6 72 12 197 15 147 4 200 8 204 18 3 9 -40 12 -190 12 -138 0 -197 3 -206 12 -17 17 -17 279 0 296 17 17 499 17 516 0z m212 -418 c0 -20 -7 -20 -470 -20 -463 0 -470 0 -470 20 0 20 7 20 470 20 463 0 470 0 470 -20z"/>
<path d="M940 1519 c0 -24 23 -21 28 4 2 10 -3 17 -12 17 -10 0 -16 -9 -16 -21z"/>
<path d="M1032 1523 c5 -25 28 -28 28 -4 0 12 -6 21 -16 21 -9 0 -14 -7 -12 -17z"/>
<path d="M977 1464 c-15 -15 -6 -24 24 -24 20 0 29 4 27 13 -5 14 -40 21 -51 11z"/>
<path d="M1011 1128 c-5 -13 -20 -52 -35 -87 -31 -76 -30 -73 -10 -69 16 3 72 126 73 161 1 24 -18 21 -28 -5z"/>
<path d="M865 1090 l-29 -30 29 -30 c26 -28 55 -40 55 -23 0 4 -10 17 -22 30 l-21 23 21 23 c12 13 22 26 22 30 0 17 -29 5 -55 -23z"/>
<path d="M1080 1107 c0 -8 9 -22 20 -32 l20 -18 -20 -22 c-23 -25 -25 -35 -7 -35 18 0 57 42 57 61 0 18 -41 59 -58 59 -7 0 -12 -6 -12 -13z"/>
</g>
</svg>